<svg xmlns="http://www.w3.org/2000/svg" width="32" height="39" viewBox="0 0 32 39" fill="none">
  <g clip-path="url(#clip0_260111_904)">
    <path d="M12.3303 6.71933C12.202 6.74545 12.003 6.79196 12.003 6.79196L11.8576 6.82828L11.3122 6.97355L11.0941 7.04619L10.9123 7.11883L10.5851 7.2641L10.3306 7.40937L9.93063 7.6636L9.53069 8.02678L9.16711 8.4626L8.87624 8.93473L8.6581 9.37055L8.43995 9.91532L8.25816 10.4964C8.25816 10.4964 8.15611 10.8476 8.11272 11.0775C8.07292 11.2884 8.06866 11.4096 8.04001 11.6223C7.99797 11.9344 7.96426 12.1081 7.93093 12.4213C7.88431 12.8594 7.88065 13.1071 7.85822 13.5471C7.84015 13.9015 7.83606 14.1005 7.82186 14.4551C7.80766 14.8097 7.79515 15.0083 7.7855 15.363C7.76507 16.1145 7.7855 16.5362 7.7855 17.2879V18.8859V20.3386V22.2461V23.0988L7.85822 24.5515L7.89458 25.2053C7.89458 25.2053 7.95952 26.3181 8.07637 27.0212C8.13565 27.3779 8.15863 27.5815 8.25816 27.9291C8.3669 28.309 8.44801 28.5185 8.62174 28.8734C8.73622 29.1073 8.80237 29.2392 8.94896 29.4545C9.02882 29.5718 9.07769 29.6349 9.16711 29.745C9.27478 29.8777 9.33429 29.954 9.45797 30.0719C9.58951 30.1973 9.67194 30.2592 9.82156 30.3624C9.98387 30.4744 10.2579 30.6167 10.2579 30.6167L10.7669 30.8709L11.4213 31.1251L12.1848 31.343L12.912 31.4883L13.5301 31.5609L14.6935 31.6699L16.366 31.7789C16.366 31.7789 17.8728 31.8089 18.8384 31.8152C19.6051 31.8202 20.0351 31.8308 20.8017 31.8152C21.7396 31.796 22.2645 31.7545 23.2013 31.7062C24.1814 31.6557 24.7314 31.6332 25.71 31.5609C27.0472 31.4622 27.7937 31.3681 29.1277 31.2341C29.6816 31.1784 30.5457 31.0888 30.5457 31.0888V37.0813V37.1176C30.5457 37.1176 30.2798 37.1623 30.1094 37.1903C29.7547 37.2485 29.5561 37.2836 29.2004 37.3355C28.7658 37.399 28.5192 37.4281 28.0869 37.4792L28.0733 37.4808C27.5345 37.5445 27.2309 37.5659 26.6917 37.6261C26.2086 37.68 25.9387 37.7183 25.4555 37.7714C25.0441 37.8166 24.8133 37.8414 24.4012 37.8803C23.8905 37.9285 23.6038 37.9518 23.0923 37.9893C22.6524 38.0214 22.4055 38.0361 21.9652 38.0619C21.4116 38.0943 21.1011 38.1104 20.5472 38.1345C20.1781 38.1506 19.9713 38.1672 19.6019 38.1708C19.4741 38.1721 19.2747 38.1708 19.2747 38.1708C19.2747 38.1708 18.4771 38.2014 17.9658 38.2072C17.6108 38.2112 17.4118 38.2072 17.0568 38.2072C16.8722 38.2072 16.7687 38.2082 16.5842 38.2072C15.9735 38.2039 15.6315 38.1718 15.0208 38.1708C14.9782 38.1708 14.9543 38.1711 14.9117 38.1708C14.5848 38.1692 14.544 38.1629 14.0755 38.1345L12.8756 38.0619C12.4071 38.0335 12.388 38.0191 12.0758 37.9893C11.7917 37.9621 11.6321 37.9489 11.3486 37.9166C11.0214 37.8793 10.8383 37.855 10.5124 37.8077C10.2421 37.7684 10.0911 37.7427 9.82156 37.6987C9.65108 37.6709 9.55501 37.658 9.38526 37.6261C9.18548 37.5885 9.07416 37.5635 8.87624 37.5171C8.60467 37.4534 8.45396 37.4111 8.18544 37.3355C7.85686 37.2431 7.67318 37.1887 7.3492 37.0813C7.10627 37.0007 6.96992 36.9554 6.73112 36.8634C6.25094 36.6783 5.98527 36.5609 5.5313 36.3186C5.32936 36.2109 5.02229 36.0281 5.02229 36.0281C5.02229 36.0281 4.6142 35.7755 4.36784 35.5923C4.08497 35.3818 3.93638 35.2499 3.67704 35.0112C3.44079 34.7937 3.30913 34.6696 3.09531 34.4301C2.83624 34.1399 2.70826 33.9585 2.48667 33.6445L2.47722 33.6311C2.28208 33.3546 2.17558 33.1967 2.00456 32.9047C1.8346 32.6145 1.7464 32.447 1.60462 32.142C1.44395 31.7964 1.371 31.5942 1.2419 31.2365L1.24104 31.2341C1.07963 30.7867 0.999202 30.5316 0.877462 30.0719C0.758517 29.6228 0.709217 29.3662 0.622955 28.9097C0.558882 28.5706 0.529362 28.3793 0.477523 28.0381C0.413041 27.6137 0.377145 27.3754 0.332091 26.9485C0.29624 26.6088 0.287772 26.4173 0.259374 26.0769C0.216778 25.5663 0.185285 25.2806 0.1503 24.7694C0.113448 24.231 0.0984039 23.9287 0.0775839 23.3894C0.0513156 22.7089 0.0536097 22.3269 0.0412258 21.6461C0.0231681 20.6533 0.00977734 20.0967 0.00486772 19.1038C0.0022729 18.579 -0.00464984 18.2847 0.00486772 17.76C0.0172255 17.0788 0.0488817 16.6976 0.0775839 16.0168C0.105689 15.3502 0.110261 14.9758 0.1503 14.3098C0.18444 13.7419 0.210526 13.4239 0.259374 12.8571C0.320567 12.147 0.350662 11.7481 0.441165 11.0412C0.50306 10.5577 0.536627 10.2861 0.622955 9.80637C0.71805 9.27794 0.773876 8.98098 0.91382 8.4626C1.0027 8.13337 1.06201 7.95131 1.16833 7.62728C1.29981 7.22656 1.37209 7.00068 1.53191 6.61037C1.63779 6.35179 1.70037 6.20785 1.82277 5.95665C1.9423 5.71134 2.03641 5.5378 2.15 5.33924L2.44086 4.83078C2.55445 4.63222 2.67965 4.49503 2.8408 4.28601C3.0194 4.05435 3.11719 3.92185 3.31346 3.70492C3.50195 3.49659 3.82247 3.19647 3.82247 3.19647L4.00426 3.01488C4.00426 3.01488 4.24328 2.80965 4.4042 2.68801C4.58322 2.55269 4.69017 2.48571 4.87685 2.36115C5.07336 2.23004 5.1821 2.15384 5.38587 2.03429C5.594 1.91217 5.71527 1.85142 5.93124 1.74374C6.14153 1.6389 6.26071 1.5823 6.47661 1.48951C6.72851 1.38126 6.87309 1.32821 7.13106 1.23529C7.38448 1.144 7.51573 1.08829 7.7855 1.01738L8.47631 0.835786C8.74608 0.764871 8.91788 0.718307 9.20347 0.654195C9.48602 0.590767 9.6456 0.560102 9.93063 0.508923C10.2982 0.442915 10.5064 0.418187 10.8759 0.36365C11.1739 0.319672 11.3405 0.291281 11.6395 0.254696C12.1065 0.197548 12.3702 0.182376 12.8393 0.145741C13.2649 0.1125 13.5037 0.096276 13.93 0.073105C14.2423 0.056133 14.4174 0.0490807 14.7299 0.0367868C15.1983 0.0183565 15.9297 0.000468657 15.9297 0.000468657H16.9841C17.1261 0.000468657 17.2057 -0.000585821 17.3477 0.000468657C17.8023 0.00384463 18.0569 0.0193802 18.5111 0.0367868C18.8378 0.0493035 19.0211 0.0532445 19.3474 0.073105C19.7028 0.0947409 19.9017 0.113857 20.2563 0.145741C20.7967 0.194318 21.1002 0.219057 21.6379 0.291014C22.0081 0.340553 22.2158 0.369259 22.5833 0.436286C22.9832 0.509251 23.2048 0.564094 23.6013 0.654195C24.0143 0.748064 24.2484 0.792206 24.6557 0.908423C24.9277 0.986041 25.0794 1.0332 25.3465 1.12633C25.6776 1.24178 25.8612 1.31325 26.1827 1.45319C26.4273 1.55965 26.5648 1.61957 26.8008 1.74374C27.0938 1.89788 27.2531 1.99502 27.528 2.17956C27.7472 2.32673 27.8698 2.41089 28.0733 2.57906C28.236 2.71346 28.3171 2.80041 28.4733 2.94224C28.6294 3.08407 28.7269 3.1534 28.8732 3.30542C29.0269 3.46515 29.0981 3.56837 29.2368 3.74124C29.3824 3.92275 29.4651 4.02401 29.6004 4.21337C29.7193 4.37989 29.7858 4.47381 29.8912 4.64919C29.9828 4.80157 30.0271 4.8911 30.1094 5.04869C30.1828 5.18931 30.2236 5.26837 30.2912 5.41187C30.3507 5.53829 30.4366 5.73874 30.4366 5.73874L30.473 5.81137C30.473 5.81137 30.5421 5.96521 30.582 6.0656C30.6649 6.27403 30.7638 6.61037 30.7638 6.61037L30.982 7.2641C30.982 7.2641 31.076 7.57254 31.1274 7.77255C31.1745 7.95583 31.2365 8.24469 31.2365 8.24469C31.2365 8.24469 31.302 8.55478 31.3456 8.75314C31.3736 8.88088 31.3919 8.95192 31.4183 9.08001C31.4906 9.43175 31.5637 9.98796 31.5637 9.98796L31.7455 11.586L31.8909 13.8377C31.8909 13.8377 31.9586 15.0546 31.9636 15.8352C31.9648 16.0054 31.9636 16.271 31.9636 16.271L32 17.5785V18.8133V19.7939V21.6461H26.5099H24.8738H24.5829V21.2466V20.7018V19.7575V18.8133V18.1232V17.2153V16.4163C24.5829 16.4163 24.5889 15.8628 24.5829 15.5083C24.5763 15.111 24.5466 14.4914 24.5466 14.4914L24.5102 13.5835L24.4375 12.8208C24.4375 12.8208 24.3842 12.2656 24.3284 11.9128C24.2811 11.6133 24.2428 11.4474 24.183 11.1501C24.1287 10.8802 24.1023 10.7278 24.0376 10.4601C23.9858 10.2461 23.9608 10.1246 23.8921 9.91532C23.8305 9.72761 23.7827 9.62703 23.7104 9.44319C23.6544 9.30103 23.5649 9.08001 23.5649 9.08001C23.5649 9.08001 23.4196 8.80829 23.3104 8.64419C23.1815 8.45046 22.9468 8.17205 22.9468 8.17205L22.4742 7.69992C22.4742 7.69992 22.3445 7.58508 22.256 7.51833C22.1083 7.40688 22.0175 7.35457 21.8561 7.2641C21.7176 7.18652 21.638 7.14599 21.4925 7.08251C21.2991 6.9981 21.1854 6.96253 20.9835 6.90092C20.7595 6.83256 20.4018 6.75565 20.4018 6.75565L19.6382 6.61037L18.8384 6.50142L17.9658 6.42878C17.9658 6.42878 17.3677 6.39955 16.9841 6.39246C16.6008 6.38538 16.3858 6.38672 16.0024 6.39246C15.5621 6.39907 15.3151 6.40586 14.8753 6.42878L14.87 6.42906C14.6449 6.44079 14.4486 6.45103 14.2936 6.4651C14.2936 6.4651 14.0498 6.4865 13.8937 6.50142C13.7516 6.51499 13.6719 6.52161 13.5301 6.53774C13.5301 6.53774 13.3527 6.55881 13.2392 6.57405C13.1397 6.58742 13.0841 6.59619 12.9847 6.61037C12.8853 6.62456 12.8294 6.63105 12.7302 6.64669C12.5734 6.67142 12.4858 6.68765 12.3303 6.71933Z" fill="white"/>
    <g opacity="0.9">
      <path d="M4.38448 22.0863L4.07409 22.1588L3.52228 22.3038C3.52228 22.3038 3.20395 22.4123 3.14291 22.594C3.10701 22.7008 3.14291 22.8841 3.14291 22.8841L3.21189 23.1742L3.31535 23.6819L3.41881 24.1533L3.48779 24.4434L3.59125 24.9148L3.69472 25.3863L3.79818 25.8577L3.90165 26.3291L3.97062 26.6555L4.07409 27.127L4.21204 27.7434L4.28101 28.0336C4.28101 28.0336 4.32355 28.181 4.38448 28.2511C4.47394 28.3541 4.56402 28.4191 4.69487 28.3962C4.90181 28.3599 5.1777 28.2874 5.1777 28.2874L5.79849 28.1423L6.28132 28.0336L7.07454 27.8522L7.69533 27.7072L8.31611 27.5621L9.10933 27.3808L9.86807 27.1995L10.3509 27.0907L10.8337 26.9819L11.3166 26.8731L12.0753 26.6918L12.8685 26.5105L13.4893 26.3654L14.1446 26.2204L14.7309 26.0753L15.5241 25.894L16.1449 25.7489L17.1105 25.5313L17.8693 25.35L18.697 25.1687L19.3178 25.0236L19.9386 24.8786L20.3869 24.7698L20.8697 24.661L21.3526 24.5522L21.8009 24.4434L22.2838 24.3346L22.7321 24.2258L23.2149 24.117L23.6978 24.0083L24.1806 23.8995L24.8014 23.7544L25.2842 23.6456L25.905 23.5006L26.3533 23.3918L26.9741 23.2467L27.457 23.1379L27.9398 23.0291L28.5606 22.8841L29.1814 22.739L29.9746 22.5577L30.5954 22.4126C30.5954 22.4126 30.7333 22.3764 30.8368 22.3401C30.9645 22.2953 31.0155 22.1885 31.0437 22.05C31.0578 21.9808 31.0437 21.8687 31.0437 21.8687L30.9058 21.1434L30.7678 20.4181L30.5954 19.4753L30.4574 18.75L30.3195 17.9884L30.1815 17.2632L30.0436 16.5379L29.9746 16.2478C29.9422 16.1118 29.8596 16.0382 29.7332 15.9939C29.6437 15.9626 29.4917 15.9939 29.4917 15.9939L29.3193 16.0302L28.7675 16.1752L27.8708 16.3928L26.9051 16.6104L25.905 16.8642L25.4566 16.973L25.1463 17.0456L24.6979 17.1544L24.2496 17.2632L23.8012 17.3719L23.4908 17.4445L23.0425 17.5533L22.5941 17.6621L22.1458 17.7708L21.6975 17.8796L21.2491 17.9884L20.8008 18.0972L20.3524 18.206L19.7661 18.3511L19.1798 18.4961L18.559 18.6412L18.1107 18.75L17.5244 18.895L16.9381 19.0401L16.3173 19.1851L15.5931 19.3665L15.2827 19.439L14.8343 19.5478L14.386 19.6566L13.9377 19.7654L13.4893 19.8742L13.041 19.9829L12.5926 20.0917L12.1443 20.2005L11.558 20.3456L11.1096 20.4544L10.6613 20.5632L10.3509 20.6357L9.90256 20.7445L9.17831 20.9258L8.55753 21.0709L7.66084 21.2885L7.07454 21.4335L6.31581 21.6148L5.72951 21.7599L5.28117 21.8687L4.83282 21.9775L4.38448 22.0863Z" fill="white" fill-opacity="0.8"/>
    </g>
  </g>
  <defs>
    <clipPath id="clip0_260111_904">
      <rect width="32" height="39" fill="white"/>
    </clipPath>
  </defs>
</svg>